<svg xmlns="http://www.w3.org/2000/svg" xmlns:xlink="http://www.w3.org/1999/xlink" width="100" height="100" viewBox="0 0 100 100">
  <defs>
    <path id="lxisdhdklt-a" d="M36.826 2.222l-28.82 16.64A15.73 15.73 0 0 0 .139 32.486v33.282c0 5.62 3 10.813 7.867 13.624l28.82 16.64a15.735 15.735 0 0 0 15.733 0l28.822-16.64a15.734 15.734 0 0 0 7.866-13.624V32.485c0-5.62-2.999-10.812-7.866-13.622L52.56 2.222A15.722 15.722 0 0 0 44.693.115c-2.717 0-5.432.702-7.867 2.107z"></path>
  </defs>
  <g fill="none" fill-rule="evenodd">
    <g transform="translate(5 .719)">
      <mask id="lxisdhdklt-b" fill="#fff">
        <use xlink:href="#lxisdhdklt-a"></use>
      </mask>
      <path fill="#0F186D" d="M56.091 107.15h53.879V41.874H56.09z" mask="url(#lxisdhdklt-b)"></path>
      <path fill="#583889" d="M86.477 91.485L59.41 73.347l.127-.357 52.056 5.441.069.37-24.987 12.697z" mask="url(#lxisdhdklt-b)"></path>
      <path fill="#583889" d="M111.573 78.626l-52.056-5.442 27.07 18.138z" mask="url(#lxisdhdklt-b)"></path>
      <path fill="#582C7D" d="M47.017 106.936l-.177-.264 12.494-33.555.363-.014 15.616 34.464-.185.276z" mask="url(#lxisdhdklt-b)"></path>
      <path fill="#582C7D" d="M59.517 73.184l-12.493 33.557 28.11.906z" mask="url(#lxisdhdklt-b)"></path>
      <path fill="#583889" d="M74.956 107.729L59.339 73.266l.287-.243 27.07 18.138.05.275-11.451 16.324z" mask="url(#lxisdhdklt-b)"></path>
      <path fill="#583889" d="M59.517 73.184l15.617 34.463 11.452-16.324z" mask="url(#lxisdhdklt-b)"></path>
      <path fill="#5C518F" d="M59.497 73.38l-.158-.273 12.493-29.021.308-.07 39.562 34.463-.149.342z" mask="url(#lxisdhdklt-b)"></path>
      <path fill="#5C518F" d="M72.01 44.162L59.519 73.185l52.055 5.441z" mask="url(#lxisdhdklt-b)"></path>
      <path fill="#719560" d="M71.882 44.31l.19-.333 43.728 14.51.13.226-4.165 19.952-.32.108z" mask="url(#lxisdhdklt-b)"></path>
      <path fill="#719560" d="M72.01 44.162l39.563 34.464 4.165-19.952z" mask="url(#lxisdhdklt-b)"></path>
      <path fill="#719560" d="M71.95 44.349l.006-.374 55.179-16.325.238.256-11.451 30.835-.245.117z" mask="url(#lxisdhdklt-b)"></path>
      <path fill="#719560" d="M127.19 27.838L72.01 44.162l43.727 14.512z" mask="url(#lxisdhdklt-b)"></path>
      <path fill="#583889" d="M24.06 99.672l-.057-.343 35.399-26.3.3.224-12.495 33.556-.243.117z" mask="url(#lxisdhdklt-b)"></path>
      <path fill="#583889" d="M59.517 73.184L24.12 99.485l22.905 7.256z" mask="url(#lxisdhdklt-b)"></path>
      <path fill="#5C518F" d="M23.936 99.555L17.69 83.231l.137-.26 41.644-9.976.163.347-35.398 26.3z" mask="url(#lxisdhdklt-b)"></path>
      <path fill="#5C518F" d="M17.873 83.16l6.246 16.325 35.399-26.3z" mask="url(#lxisdhdklt-b)"></path>
      <path fill="#657079" d="M48.935 54.232l.093-.272 22.905-9.977.258.257-12.493 29.022-.352.017z" mask="url(#lxisdhdklt-b)"></path>
      <path fill="#657079" d="M72.01 44.162L49.108 54.14l10.41 19.046z" mask="url(#lxisdhdklt-b)"></path>
      <path fill="#626681" d="M17.74 83.018l31.233-29.023.305.05L59.69 73.091l-.127.284-41.645 9.976z" mask="url(#lxisdhdklt-b)"></path>
      <path fill="#626681" d="M49.106 54.139L17.873 83.16l41.644-9.976z" mask="url(#lxisdhdklt-b)"></path>
      <path fill="#77A853" d="M47.996 35.276l-.048-.34 22.904-17.23.313.148 1.042 26.301-.265.19z" mask="url(#lxisdhdklt-b)"></path>
      <path fill="#77A853" d="M70.97 17.862L48.065 35.093l23.946 9.07z" mask="url(#lxisdhdklt-b)"></path>
      <path fill="#6A816E" d="M48.911 54.15L47.87 35.103l.265-.194 23.946 9.07.009.362-22.906 9.977z" mask="url(#lxisdhdklt-b)"></path>
      <path fill="#6A816E" d="M72.01 44.162l-23.945-9.068 1.042 19.045z" mask="url(#lxisdhdklt-b)"></path>
      <path fill="#6A816E" d="M17.678 83.137l4.164-34.463.233-.169 27.07 5.443.094.334-31.233 29.022z" mask="url(#lxisdhdklt-b)"></path>
      <path fill="#6A816E" d="M49.106 54.139l-27.07-5.442-4.163 34.464z" mask="url(#lxisdhdklt-b)"></path>
      <path fill="#719560" d="M71.815 44.17l-1.04-26.3.229-.2 56.221 9.976.02.38L72.066 44.35z" mask="url(#lxisdhdklt-b)"></path>
      <path fill="#719560" d="M70.97 17.862l1.041 26.3 55.18-16.324z" mask="url(#lxisdhdklt-b)"></path>
      <path fill="#B7CD3E" d="M70.935 18.054l-.127-.303L83.301-.39l.268-.053 43.726 28.115-.139.357z" mask="url(#lxisdhdklt-b)"></path>
      <path fill="#B7CD3E" d="M83.463-.277L70.97 17.861l56.22 9.977z" mask="url(#lxisdhdklt-b)"></path>
      <path fill="#605C87" d="M-16.532 89.7l.012-.382 34.358-6.348.217.121 6.246 16.326-.229.26z" mask="url(#lxisdhdklt-b)"></path>
      <path fill="#605C87" d="M-16.485 89.51l40.604 9.976-6.246-16.326z" mask="url(#lxisdhdklt-b)"></path>
      <path fill="#719560" d="M21.998 48.89l-.052-.366L47.975 34.92l.285.162 1.041 19.046-.234.203z" mask="url(#lxisdhdklt-b)"></path>
      <path fill="#719560" d="M48.065 35.093L22.036 48.697l27.07 5.441z" mask="url(#lxisdhdklt-b)"></path>
      <path fill="#77A853" d="M21.842 48.674l3.125-25.394.283-.15 22.905 11.79.001.347L22.128 48.87z" mask="url(#lxisdhdklt-b)"></path>
      <path fill="#77A853" d="M25.16 23.303l-3.124 25.394 26.029-13.604z" mask="url(#lxisdhdklt-b)"></path>
      <path fill="#7FB947" d="M25.07 23.477l.067-.368 45.81-5.442.14.351L48.182 35.25l-.207.017z" mask="url(#lxisdhdklt-b)"></path>
      <path fill="#7FB947" d="M70.97 17.862l-45.81 5.44 22.905 11.791z" mask="url(#lxisdhdklt-b)"></path>
      <path fill="#687775" d="M-16.667 89.438l10.412-26.302.307-.077 23.945 19.952-.088.342-34.358 6.35z" mask="url(#lxisdhdklt-b)"></path>
      <path fill="#687775" d="M-6.073 63.208L-16.485 89.51l34.358-6.348z" mask="url(#lxisdhdklt-b)"></path>
      <path fill="#719560" d="M-6.199 63.359l.036-.324 28.11-14.51.284.196-4.164 34.464-.32.126z" mask="url(#lxisdhdklt-b)"></path>
      <path fill="#719560" d="M22.037 48.697l-28.11 14.51 23.946 19.954z" mask="url(#lxisdhdklt-b)"></path>
      <path fill="#77A853" d="M-6.268 63.195l2.08-29.929.297-.155 26.028 15.42-.01.34-28.11 14.511z" mask="url(#lxisdhdklt-b)"></path>
      <path fill="#77A853" d="M-3.99 33.28l-2.083 29.928 28.11-14.51z" mask="url(#lxisdhdklt-b)"></path>
      <path fill="#AACA40" d="M25.028 23.16L58.343-7.677l.31.058 12.492 25.394-.152.28-45.81 5.442z" mask="url(#lxisdhdklt-b)"></path>
      <path fill="#AACA40" d="M58.476-7.533L25.16 23.304 70.97 17.86z" mask="url(#lxisdhdklt-b)"></path>
      <path fill="#C6D23C" d="M70.794 17.948L58.3-7.446l.23-.274L83.517-.465l.106.298-12.493 18.14z" mask="url(#lxisdhdklt-b)"></path>
      <path fill="#C6D23C" d="M83.463-.277L58.476-7.533 70.97 17.861z" mask="url(#lxisdhdklt-b)"></path>
      <path fill="#7FB947" d="M-4.091 33.447l.036-.352 29.151-9.977.259.209-3.124 25.395-.294.144z" mask="url(#lxisdhdklt-b)"></path>
      <path fill="#7FB947" d="M25.16 23.303L-3.99 33.28l26.026 15.417z" mask="url(#lxisdhdklt-b)"></path>
      <path fill="#AACA40" d="M-4.187 33.28V6.071l.295-.17 29.151 17.232-.035.354-29.151 9.976z" mask="url(#lxisdhdklt-b)"></path>
      <path fill="#AACA40" d="M-3.99 6.071V33.28l29.15-9.975z" mask="url(#lxisdhdklt-b)"></path>
      <path fill="#C9D63B" d="M24.965 23.322l-3.123-32.65.204-.214 36.439 1.815.123.338-33.315 30.835z" mask="url(#lxisdhdklt-b)"></path>
      <path fill="#C9D63B" d="M58.476-7.533l-36.44-1.813 3.125 32.65z" mask="url(#lxisdhdklt-b)"></path>
      <path fill="#D1D739" d="M-4.09 6.24l-.001-.336L21.937-9.515l.295.15 3.123 32.65-.294.186z" mask="url(#lxisdhdklt-b)"></path>
      <path fill="#D1D739" d="M22.037-9.347L-3.991 6.071l29.152 17.232z" mask="url(#lxisdhdklt-b)"></path>
    </g>
    <path fill="#FFF" d="M69.243 44.03l-18.45 9.212a2.446 2.446 0 0 1-2.199 0l-18.45-9.213v20.478h39.1V44.029zm0-5.474v-3.373h-39.1v3.373l19.55 9.774 19.55-9.774zm-39.1-8.26h39.1a4.887 4.887 0 0 1 4.887 4.887v29.324c0 2.7-2.188 4.888-4.887 4.888h-39.1a4.888 4.888 0 0 1-4.887-4.888V35.183c0-2.688 2.2-4.887 4.887-4.887z"></path>
  </g>
</svg>